<svg viewBox="0 0 116 116" fill="none" xmlns="http://www.w3.org/2000/svg">
<path d="M104.932 29.5983L104.933 29.5991C110.677 40.5934 108.401 53.0679 97.6653 66.867L97.6634 66.8695C89.2031 77.8151 77.0474 88.7443 59.3885 101.561L59.3868 101.562C59.0022 101.842 58.5196 102 58.0152 102C57.5109 102 57.0282 101.842 56.6437 101.562L56.6422 101.561C38.9552 88.7174 26.8276 77.6972 18.3643 66.8659C7.5977 53.0671 5.32186 40.593 11.0661 29.5991L11.0665 29.5983C15.1011 21.8599 26.8744 15.3743 40.8112 19.1076C47.4465 20.899 53.2219 24.7368 57.2029 29.9791L57.9993 31.0279L58.7957 29.9791C62.7768 24.7366 68.5525 20.8987 75.188 19.1074L75.1905 19.1068C89.0895 15.3169 100.896 21.8566 104.932 29.5983Z" id="heart" fill="none" stroke="currentColor" stroke-width="5"/>
</svg>
