<svg viewBox="0 0 17 21" fill="none" xmlns="http://www.w3.org/2000/svg">
<path d="M8.5 11.458C10.0878 11.458 11.375 10.1708 11.375 8.58301C11.375 6.99519 10.0878 5.70801 8.5 5.70801C6.91218 5.70801 5.625 6.99519 5.625 8.58301C5.625 10.1708 6.91218 11.458 8.5 11.458Z" stroke="currentColor" stroke-linecap="round" stroke-linejoin="round"/>
<path d="M8.50016 0.916504C6.46684 0.916504 4.51679 1.72424 3.07901 3.16202C1.64123 4.5998 0.833496 6.54984 0.833496 8.58317C0.833496 10.3963 1.21875 11.5828 2.271 12.8957L8.50016 20.0832L14.7293 12.8957C15.7816 11.5828 16.1668 10.3963 16.1668 8.58317C16.1668 6.54984 15.3591 4.5998 13.9213 3.16202C12.4835 1.72424 10.5335 0.916504 8.50016 0.916504V0.916504Z" stroke="currentColor" stroke-linecap="round" stroke-linejoin="round"/>
</svg>
