<svg viewBox="0 0 255 66" fill="none" xmlns="http://www.w3.org/2000/svg">
<path d="M74.607 49V31.081H78.237V38.671H78.138C78.138 36.097 78.688 34.15 79.788 32.83C80.888 31.51 82.505 30.85 84.639 30.85H85.299V34.843H84.045C82.505 34.843 81.306 35.261 80.448 36.097C79.612 36.911 79.194 38.099 79.194 39.661V49H74.607ZM96.8518 49.627C95.2678 49.627 93.8708 49.374 92.6608 48.868C91.4508 48.362 90.4278 47.68 89.5918 46.822C88.7558 45.942 88.1178 44.952 87.6778 43.852C87.2598 42.752 87.0508 41.608 87.0508 40.42V39.727C87.0508 38.495 87.2708 37.329 87.7108 36.229C88.1728 35.107 88.8218 34.117 89.6578 33.259C90.5158 32.379 91.5498 31.697 92.7598 31.213C93.9698 30.707 95.3338 30.454 96.8518 30.454C98.3698 30.454 99.7338 30.707 100.944 31.213C102.154 31.697 103.177 32.379 104.013 33.259C104.871 34.117 105.52 35.107 105.96 36.229C106.4 37.329 106.62 38.495 106.62 39.727V40.42C106.62 41.608 106.4 42.752 105.96 43.852C105.542 44.952 104.915 45.942 104.079 46.822C103.243 47.68 102.22 48.362 101.01 48.868C99.7998 49.374 98.4138 49.627 96.8518 49.627ZM96.8518 45.7C97.9738 45.7 98.9198 45.458 99.6898 44.974C100.46 44.468 101.043 43.797 101.439 42.961C101.835 42.103 102.033 41.135 102.033 40.057C102.033 38.957 101.824 37.989 101.406 37.153C101.01 36.295 100.416 35.624 99.6238 35.14C98.8538 34.634 97.9298 34.381 96.8518 34.381C95.7738 34.381 94.8388 34.634 94.0468 35.14C93.2768 35.624 92.6828 36.295 92.2648 37.153C91.8468 37.989 91.6378 38.957 91.6378 40.057C91.6378 41.135 91.8358 42.103 92.2318 42.961C92.6498 43.797 93.2438 44.468 94.0138 44.974C94.7838 45.458 95.7298 45.7 96.8518 45.7ZM116.388 49L119.787 31.675H125.067L128.994 49H125.364L121.371 31.774H123.285L119.754 49H116.388ZM115.035 49L115.002 45.238H118.665V49H115.035ZM113.187 49L108.303 31.081H112.758L117.411 49H113.187ZM126.519 49V45.238H130.182L130.149 49H126.519ZM127.971 49L132.096 31.081H136.254L131.931 49H127.971ZM146.004 49L149.403 31.675H154.683L158.61 49H154.98L150.987 31.774H152.901L149.37 49H146.004ZM144.651 49L144.618 45.238H148.281V49H144.651ZM142.803 49L137.919 31.081H142.374L147.027 49H142.803ZM156.135 49V45.238H159.798L159.765 49H156.135ZM157.587 49L161.712 31.081H165.87L161.547 49H157.587ZM176.091 56.062C175.233 56.062 174.353 56.029 173.451 55.963C172.571 55.897 171.746 55.809 170.976 55.699V51.871C171.768 51.959 172.615 52.036 173.517 52.102C174.419 52.19 175.266 52.234 176.058 52.234C177.532 52.234 178.72 52.058 179.622 51.706C180.546 51.354 181.217 50.793 181.635 50.023C182.075 49.275 182.295 48.318 182.295 47.152V43.621L183.285 41.377C183.219 43.027 182.878 44.435 182.262 45.601C181.646 46.745 180.81 47.625 179.754 48.241C178.698 48.835 177.477 49.132 176.091 49.132C174.859 49.132 173.737 48.901 172.725 48.439C171.735 47.977 170.877 47.339 170.151 46.525C169.447 45.711 168.897 44.754 168.501 43.654C168.105 42.554 167.907 41.377 167.907 40.123V39.43C167.907 38.176 168.105 37.01 168.501 35.932C168.919 34.832 169.502 33.875 170.25 33.061C170.998 32.247 171.889 31.62 172.923 31.18C173.957 30.74 175.101 30.52 176.355 30.52C177.829 30.52 179.105 30.839 180.183 31.477C181.283 32.115 182.141 33.039 182.757 34.249C183.373 35.459 183.714 36.944 183.78 38.704L182.988 38.836V31.081H186.618V46.888C186.618 49.066 186.244 50.826 185.496 52.168C184.748 53.51 183.593 54.489 182.031 55.105C180.491 55.743 178.511 56.062 176.091 56.062ZM177.411 45.205C178.291 45.205 179.094 45.007 179.82 44.611C180.546 44.215 181.129 43.643 181.569 42.895C182.009 42.147 182.229 41.245 182.229 40.189V39.034C182.229 38.022 181.998 37.164 181.536 36.46C181.096 35.756 180.513 35.228 179.787 34.876C179.061 34.502 178.269 34.315 177.411 34.315C176.443 34.315 175.585 34.546 174.837 35.008C174.111 35.448 173.539 36.075 173.121 36.889C172.703 37.703 172.494 38.671 172.494 39.793C172.494 40.893 172.703 41.85 173.121 42.664C173.539 43.478 174.111 44.105 174.837 44.545C175.585 44.985 176.443 45.205 177.411 45.205ZM191.622 49V31.081H195.252V38.671H195.153C195.153 36.097 195.703 34.15 196.803 32.83C197.903 31.51 199.52 30.85 201.654 30.85H202.314V34.843H201.06C199.52 34.843 198.321 35.261 197.463 36.097C196.627 36.911 196.209 38.099 196.209 39.661V49H191.622ZM216.143 49V43.687H215.384V37.78C215.384 36.746 215.131 35.976 214.625 35.47C214.119 34.964 213.338 34.711 212.282 34.711C211.732 34.711 211.072 34.722 210.302 34.744C209.532 34.766 208.751 34.799 207.959 34.843C207.189 34.865 206.496 34.898 205.88 34.942V31.048C206.386 31.004 206.958 30.96 207.596 30.916C208.234 30.872 208.883 30.85 209.543 30.85C210.225 30.828 210.863 30.817 211.457 30.817C213.305 30.817 214.834 31.059 216.044 31.543C217.276 32.027 218.2 32.786 218.816 33.82C219.454 34.854 219.773 36.207 219.773 37.879V49H216.143ZM210.368 49.462C209.07 49.462 207.926 49.231 206.936 48.769C205.968 48.307 205.209 47.647 204.659 46.789C204.131 45.931 203.867 44.897 203.867 43.687C203.867 42.367 204.186 41.289 204.824 40.453C205.484 39.617 206.397 38.99 207.563 38.572C208.751 38.154 210.137 37.945 211.721 37.945H215.879V40.684H211.655C210.599 40.684 209.785 40.948 209.213 41.476C208.663 41.982 208.388 42.642 208.388 43.456C208.388 44.27 208.663 44.93 209.213 45.436C209.785 45.942 210.599 46.195 211.655 46.195C212.293 46.195 212.876 46.085 213.404 45.865C213.954 45.623 214.405 45.227 214.757 44.677C215.131 44.105 215.34 43.335 215.384 42.367L216.506 43.654C216.396 44.908 216.088 45.964 215.582 46.822C215.098 47.68 214.416 48.34 213.536 48.802C212.678 49.242 211.622 49.462 210.368 49.462ZM224.686 49V31.081H228.316V38.77H227.986C227.986 36.966 228.217 35.459 228.679 34.249C229.141 33.017 229.823 32.093 230.725 31.477C231.649 30.839 232.793 30.52 234.157 30.52H234.355C235.741 30.52 236.885 30.839 237.787 31.477C238.711 32.093 239.393 33.017 239.833 34.249C240.295 35.459 240.526 36.966 240.526 38.77H239.371C239.371 36.966 239.602 35.459 240.064 34.249C240.548 33.017 241.241 32.093 242.143 31.477C243.067 30.839 244.211 30.52 245.575 30.52H245.773C247.159 30.52 248.314 30.839 249.238 31.477C250.162 32.093 250.855 33.017 251.317 34.249C251.801 35.459 252.043 36.966 252.043 38.77V49H247.456V38.341C247.456 37.219 247.17 36.328 246.598 35.668C246.026 34.986 245.212 34.645 244.156 34.645C243.1 34.645 242.253 34.997 241.615 35.701C240.977 36.383 240.658 37.307 240.658 38.473V49H236.071V38.341C236.071 37.219 235.785 36.328 235.213 35.668C234.641 34.986 233.827 34.645 232.771 34.645C231.715 34.645 230.868 34.997 230.23 35.701C229.592 36.383 229.273 37.307 229.273 38.473V49H224.686Z" fill="currentColor"/>
<rect x="1.5" y="1.5" width="59" height="56" fill="none" stroke="currentColor" stroke-width="3"/>
<rect x="9.5" y="10.5" width="57" height="54" fill="none" stroke="currentColor" stroke-width="3"/>
<path d="M38.64 54.912C35.632 54.912 32.976 54.416 30.672 53.424C28.4 52.4 26.48 51.04 24.912 49.344C23.376 47.616 22.208 45.68 21.408 43.536C20.64 41.36 20.256 39.104 20.256 36.768V35.712C20.256 33.504 20.64 31.344 21.408 29.232C22.176 27.12 23.296 25.216 24.768 23.52C26.272 21.824 28.112 20.48 30.288 19.488C32.496 18.464 35.024 17.952 37.872 17.952C40.944 17.952 43.664 18.528 46.032 19.68C48.4 20.8 50.304 22.384 51.744 24.432C53.184 26.448 54.032 28.8 54.288 31.488H47.424C47.2 29.984 46.64 28.704 45.744 27.648C44.848 26.56 43.712 25.728 42.336 25.152C40.992 24.576 39.504 24.288 37.872 24.288C36.24 24.288 34.752 24.576 33.408 25.152C32.096 25.728 30.976 26.544 30.048 27.6C29.12 28.656 28.4 29.92 27.888 31.392C27.408 32.864 27.168 34.496 27.168 36.288C27.168 38.24 27.44 39.984 27.984 41.52C28.528 43.056 29.296 44.368 30.288 45.456C31.28 46.512 32.48 47.328 33.888 47.904C35.296 48.448 36.88 48.72 38.64 48.72C40.976 48.72 43.024 48.24 44.784 47.28C46.544 46.288 47.824 45.008 48.624 43.44L47.424 48.96V39.936H53.712V47.712C52.208 49.984 50.16 51.76 47.568 53.04C44.976 54.288 42 54.912 38.64 54.912ZM37.536 41.28V36.192H56.64V41.28H37.536Z" fill="currentColor"/>
</svg>
