<svg viewBox="0 0 432 416" fill="none" xmlns="http://www.w3.org/2000/svg">
<path d="M368 100L346.88 75.43C328.973 56.6217 307.426 41.6536 283.55 31.4367C259.674 21.2198 233.97 15.9677 208 16C102 16 16 102 16 208C16 314 102 400 208 400C247.71 399.997 286.443 387.688 318.87 364.765C351.296 341.843 375.821 309.435 389.07 272" stroke="currentColor" stroke-width="30" stroke-linecap="round"/>
<path d="M432 49.42V160C432 164.243 430.314 168.313 427.314 171.314C424.313 174.314 420.243 176 416 176H305.42C291.16 176 284.02 158.77 294.1 148.69L404.69 38.1C414.77 28 432 35.16 432 49.42Z" fill="currentColor"/>
</svg>
