<svg viewBox="0 0 36 36" fill="none" xmlns="http://www.w3.org/2000/svg">
<path d="M18 6.42016C18.2652 6.42016 18.5196 6.3148 18.7071 6.12726C18.8946 5.93973 19 5.68537 19 5.42016V1.91016C19 1.64494 18.8946 1.39059 18.7071 1.20305C18.5196 1.01551 18.2652 0.910156 18 0.910156C17.7348 0.910156 17.4804 1.01551 17.2929 1.20305C17.1054 1.39059 17 1.64494 17 1.91016V5.42016C17 5.68537 17.1054 5.93973 17.2929 6.12726C17.4804 6.3148 17.7348 6.42016 18 6.42016Z" fill="orange"/>
<path d="M18 29.5801C17.7348 29.5801 17.4804 29.6854 17.2929 29.873C17.1054 30.0605 17 30.3149 17 30.5801V34.0901C17 34.3553 17.1054 34.6096 17.2929 34.7972C17.4804 34.9847 17.7348 35.0901 18 35.0901C18.2652 35.0901 18.5196 34.9847 18.7071 34.7972C18.8946 34.6096 19 34.3553 19 34.0901V30.5801C19 30.3149 18.8946 30.0605 18.7071 29.873C18.5196 29.6854 18.2652 29.5801 18 29.5801Z" fill="orange"/>
<path d="M8.40014 9.81014C8.59145 9.97397 8.83752 10.0596 9.0892 10.0499C9.34087 10.0401 9.57961 9.9358 9.75771 9.75771C9.9358 9.57961 10.0401 9.34087 10.0499 9.0892C10.0596 8.83752 9.97397 8.59145 9.81014 8.40014L7.33014 5.92014C7.13884 5.75632 6.89277 5.67071 6.64109 5.68043C6.38942 5.69015 6.15068 5.79449 5.97258 5.97258C5.79449 6.15068 5.69015 6.38942 5.68043 6.64109C5.67071 6.89277 5.75632 7.13884 5.92014 7.33014L8.40014 9.81014Z" fill="orange"/>
<path d="M27.5997 26.1902C27.4084 26.0263 27.1623 25.9407 26.9106 25.9505C26.6589 25.9602 26.4202 26.0645 26.2421 26.2426C26.064 26.4207 25.9597 26.6594 25.95 26.9111C25.9402 27.1628 26.0258 27.4089 26.1897 27.6002L28.6697 30.0802C28.861 30.244 29.1071 30.3296 29.3587 30.3199C29.6104 30.3102 29.8491 30.2058 30.0272 30.0277C30.2053 29.8496 30.3097 29.6109 30.3194 29.3592C30.3291 29.1075 30.2435 28.8615 30.0797 28.6702L27.5997 26.1902Z" fill="orange"/>
<path d="M6.42016 18C6.42016 17.7348 6.3148 17.4804 6.12726 17.2929C5.93973 17.1054 5.68537 17 5.42016 17H1.91016C1.64494 17 1.39059 17.1054 1.20305 17.2929C1.01551 17.4804 0.910156 17.7348 0.910156 18C0.910156 18.2652 1.01551 18.5196 1.20305 18.7071C1.39059 18.8946 1.64494 19 1.91016 19H5.42016C5.68537 19 5.93973 18.8946 6.12726 18.7071C6.3148 18.5196 6.42016 18.2652 6.42016 18Z" fill="orange"/>
<path d="M34.0901 17H30.5801C30.3149 17 30.0605 17.1054 29.873 17.2929C29.6854 17.4804 29.5801 17.7348 29.5801 18C29.5801 18.2652 29.6854 18.5196 29.873 18.7071C30.0605 18.8946 30.3149 19 30.5801 19H34.0901C34.3553 19 34.6096 18.8946 34.7972 18.7071C34.9847 18.5196 35.0901 18.2652 35.0901 18C35.0901 17.7348 34.9847 17.4804 34.7972 17.2929C34.6096 17.1054 34.3553 17 34.0901 17Z" fill="orange"/>
<path d="M8.40014 26.1902L5.92014 28.6702C5.75632 28.8615 5.67071 29.1075 5.68043 29.3592C5.69015 29.6109 5.79449 29.8496 5.97258 30.0277C6.15068 30.2058 6.38942 30.3102 6.64109 30.3199C6.89277 30.3296 7.13884 30.244 7.33014 30.0802L9.81014 27.6002C9.97397 27.4089 10.0596 27.1628 10.0499 26.9111C10.0401 26.6594 9.9358 26.4207 9.75771 26.2426C9.57961 26.0645 9.34087 25.9602 9.0892 25.9505C8.83752 25.9407 8.59145 26.0263 8.40014 26.1902Z" fill="orange"/>
<path d="M27.5997 9.81014L30.0797 7.33014C30.2435 7.13884 30.3291 6.89277 30.3194 6.64109C30.3097 6.38942 30.2053 6.15068 30.0272 5.97258C29.8491 5.79449 29.6104 5.69015 29.3587 5.68043C29.1071 5.67071 28.861 5.75632 28.6697 5.92014L26.1897 8.40014C26.0258 8.59145 25.9402 8.83752 25.95 9.0892C25.9597 9.34087 26.064 9.57961 26.2421 9.75771C26.4202 9.9358 26.6589 10.0401 26.9106 10.0499C27.1623 10.0596 27.4084 9.97397 27.5997 9.81014Z" fill="orange"/>
<path d="M18 28C23.5228 28 28 23.5228 28 18C28 12.4772 23.5228 8 18 8C12.4772 8 8 12.4772 8 18C8 23.5228 12.4772 28 18 28Z" fill="orange"/>
</svg>
