<svg viewBox="0 0 68 66" fill="none" xmlns="http://www.w3.org/2000/svg">
<rect x="1.5" y="1.5" width="59" height="56" fill="none" stroke="currentColor" stroke-width="3"/>
<rect x="9.5" y="10.5" width="57" height="54" fill="none" stroke="currentColor" stroke-width="3"/>
<path d="M38.64 54.912C35.632 54.912 32.976 54.416 30.672 53.424C28.4 52.4 26.48 51.04 24.912 49.344C23.376 47.616 22.208 45.68 21.408 43.536C20.64 41.36 20.256 39.104 20.256 36.768V35.712C20.256 33.504 20.64 31.344 21.408 29.232C22.176 27.12 23.296 25.216 24.768 23.52C26.272 21.824 28.112 20.48 30.288 19.488C32.496 18.464 35.024 17.952 37.872 17.952C40.944 17.952 43.664 18.528 46.032 19.68C48.4 20.8 50.304 22.384 51.744 24.432C53.184 26.448 54.032 28.8 54.288 31.488H47.424C47.2 29.984 46.64 28.704 45.744 27.648C44.848 26.56 43.712 25.728 42.336 25.152C40.992 24.576 39.504 24.288 37.872 24.288C36.24 24.288 34.752 24.576 33.408 25.152C32.096 25.728 30.976 26.544 30.048 27.6C29.12 28.656 28.4 29.92 27.888 31.392C27.408 32.864 27.168 34.496 27.168 36.288C27.168 38.24 27.44 39.984 27.984 41.52C28.528 43.056 29.296 44.368 30.288 45.456C31.28 46.512 32.48 47.328 33.888 47.904C35.296 48.448 36.88 48.72 38.64 48.72C40.976 48.72 43.024 48.24 44.784 47.28C46.544 46.288 47.824 45.008 48.624 43.44L47.424 48.96V39.936H53.712V47.712C52.208 49.984 50.16 51.76 47.568 53.04C44.976 54.288 42 54.912 38.64 54.912ZM37.536 41.28V36.192H56.64V41.28H37.536Z" fill="currentColor"/>
</svg>
